<svg xmlns="http://www.w3.org/2000/svg" viewBox="513.77 36.8172 248.6 273.3">
  <path
    stroke="#FF0000"
    stroke-width="10"
    fill="none"
    d="M681.539 50.75q26.5 7.98 44.73 27.81 21.23 23.12 25.23 53.97.82 6.35.82 19.97 0 10.75.05 21.5.22 24.2-9.6 44.19-22.25 45.28-72.96 55.21-2.83.55-5.17 2.91-4.36 4.4-21.99 21.76-2.55 2.51-5.53 1.88-1.84-.38-4.39-2.89l-22.84-22.38q-1.17-1.15-2.79-1.43-25.39-4.38-45.22-19.71-7.86-6.08-14.4-13.81-22.72-26.86-23.69-63.48-.07-13.75.12-27.5.17-12.63 1.43-19.92 6-34.83 33.28-58.58 21.43-17.95 48.52-22.17 6.9-1.08 19.94-1.2 18.05-.17 30 .12 11.66.29 24.46 3.75z"
  />
</svg>
